# xmcd
#
# Track frame offsets: 
#        150
#        13275
#        26551
#        39901
#        60002
#        78302
#        98239
#        119089
#        134765
#        148416
#        162367
#        175267
#        193165
#        207303
#        218854
#        234679
#        256617
#        275893
#        287593
#
# Disc length: 4116 seconds
#
# Revision: 0
# Processed by: cddbd v1.5.2PL0 Copyright (c) Steve Scherf et al.
# Submitted via: ExactAudioCopy v0.99pb5
#
DISCID=23101213
DTITLE=Various Artist - Романсы
DYEAR=2005
DGENRE=Retro
TTITLE0=Сархан - Калитка
TTITLE1=А.Герман - Ах, как мне жаль тебя
TTITLE2=Д.Рахин - Отцвели хризантемы
TTITLE3=З.Сазонова - Я не стыжусь моей любви
TTITLE4=В.Овчаров - Не спеши
TTITLE5=Г.Невара - Осенний романс
TTITLE6=Н.Брегвадзе - Снегопад
TTITLE7=С.Рогожин - О чём задумались, мадам
TTITLE8=Анастасия - Вы помните
TTITLE9=М.Кодряну - Только раз бывают в жизни встречи
TTITLE10=Ф.Церикати - Ямщик, не гони лошадей
TTITLE11=Г.Улётова - Верность женская моя
TTITLE12=М.Сувороова - В шумном городе
TTITLE13=Л.Макарская - Поздно
TTITLE14=А.Литвиненко - Две розы 
TTITLE15=А.Резникова - Окажется,черемуха цвела
TTITLE16=А.Приклонский - Дорогой длинною
TTITLE17=В.Понамарёва - А напоследок я скажу
TTITLE18=А.Герман - Гори, гори моя звезда
EXTD=
EXTT0=
EXTT1=
EXTT2=
EXTT3=
EXTT4=
EXTT5=
EXTT6=
EXTT7=
EXTT8=
EXTT9=
EXTT10=
EXTT11=
EXTT12=
EXTT13=
EXTT14=
EXTT15=
EXTT16=
EXTT17=
EXTT18=
PLAYORDER=
